<?xml version="1.0" encoding="UTF-8"?><svg id="Layer_1" xmlns="http://www.w3.org/2000/svg" viewBox="0 0 800 600"><g id="sunset"><path d="m629.426,464.679c7.537-22.722,11.629-47.014,11.629-72.265,0-126.683-102.696-229.379-229.379-229.379s-229.379,102.697-229.379,229.379c0,25.251,4.092,49.543,11.629,72.265h435.501Z" fill="#f5f0df"/><path d="m650.259,464.874h-360.261c-.108,0-.195-.087-.195-.195s.087-.195.195-.195h360.261c.108,0,.195.087.195.195s-.087.195-.195.195Z"/><path d="m462.065,469.13h-16.302c-.108,0-.195-.087-.195-.195s.087-.195.195-.195h16.302c.108,0,.195.087.195.195s-.087.195-.195.195Z"/><path d="m533.094,478.29h-71.03c-.108,0-.195-.087-.195-.195s.087-.195.195-.195h71.03c.108,0,.195.087.195.195s-.087.195-.195.195Z"/><path d="m549.923,504.174h-24.073c-.108,0-.195-.087-.195-.195s.087-.195.195-.195h24.073c.108,0,.195.087.195.195s-.087.195-.195.195Z"/><path d="m303.754,567.079h-18.545c-.108,0-.195-.087-.195-.195s.087-.195.195-.195h18.545c.108,0,.195.087.195.195s-.087.195-.195.195Z"/><path d="m271.022,485.515h-45.616c-.108,0-.195-.087-.195-.195s.087-.195.195-.195h45.616c.108,0,.195.087.195.195s-.087.195-.195.195Z"/><path d="m285.209,498.52h-12.457c-.108,0-.195-.087-.195-.195s.087-.195.195-.195h12.457c.108,0,.195.087.195.195s-.087.195-.195.195Z"/><path d="m215.154,517.003h-15.233c-.108,0-.195-.087-.195-.195s.087-.195.195-.195h15.233c.108,0,.195.087.195.195s-.087.195-.195.195Z"/><path d="m277.309,464.874h-105.894c-.108,0-.195-.087-.195-.195s.087-.195.195-.195h105.894c.108,0,.195.087.195.195s-.087.195-.195.195Z"/></g><g><path d="m463.302,207.971c-3.899-2.322-8.985-.98-11.447,2.833-9.358,14.492-22.193,53.655-29.423,57.07-6.414,3.03-27.952,6.396-38.731,7.943-3.426.492-6.824-.417-9.775-2.225-.485-.297-.994-.55-1.505-.718-2.559-.839-5.344-2.682-5.344-2.682,0,0-1.555,2.46,1.28,3.945,2.835,1.485,7.319,5.994,3.83,6.607-3.489.613-15.079-.864-15.889.605-.81,1.469,3.448,1.448,6.805,1.79,3.357.341,5.077,1.213,4.16,1.695-.918.481-2.654-.271-5.822-.222-3.168.049-6.786.557-6.527,2.058.158.913,3.844-.24,7.814.065,3.97.305,6.34.753,6.41,1.127.07.374-3.199.276-5.965.934-2.765.658-5.37-.429-5.538,1.37-.086.92,3.481,1.21,6.323.872,2.843-.337,4.435-.716,5.319-.361.608.245.677.671-1.718,1.288-2.395.617-5.338.211-5.341.819-.007,1.57,2.32.806,5.369.74,3.049-.066,12.96-6.399,14.136-6.115,1.177.284,53.136-1.79,55.583-2.79,2.448-1,30.828-46.326,32.918-61.479,1.149-8.334-2.976-12.82-6.922-15.169Z" fill="#e6a57f"/><path d="m453.264,260.453c-.025-.003-.05-.012-.073-.024-.104-.057-.142-.187-.087-.29.137-.253,13.732-25.327,16.599-34.768.034-.112.159-.177.267-.142.114.034.177.153.143.266-2.88,9.481-16.495,34.595-16.632,34.847-.044.08-.132.122-.218.11Z"/><path d="m428.118,270.1c-.113-.016-.194-.116-.184-.231.011-.117.115-.204.233-.194.024.002,2.45.211,3.324-.452.094-.072.228-.053.3.041.071.094.053.23-.042.302-1.005.76-3.514.546-3.621.536-.003,0-.007,0-.01-.001Z"/><path d="m409.858,286.669c-.1-.014-.179-.097-.184-.201-.007-.117.084-.22.202-.225.169-.009,16.832-.865,18.976-1.01.12-.012.22.079.228.199.007.118-.081.22-.199.228-2.148.148-18.815,1.004-18.983,1.013-.013,0-.027,0-.04-.002Z"/></g><g><polygon points="352.46 269.256 371.379 283.372 398.302 285.216 392.335 304.243 365.849 304.243 347.076 290.212 352.46 269.256" fill="#de5c2d"/><polygon points="352.46 269.256 373.453 275.041 398.302 285.216 371.379 283.372 352.46 269.256" fill="#3b3530"/><path d="m365.849,304.504c-.021,0-.044-.003-.066-.009-.139-.037-.222-.179-.185-.317l5.53-20.871c.036-.138.176-.223.317-.185.139.037.222.179.185.317l-5.53,20.871c-.03.116-.136.193-.251.193Z"/></g><g><polygon points="451.273 214.811 445.93 204.527 456.305 192.597 465.603 210.304 451.273 214.811" fill="#e49c7a"/><path d="m432.101,179.465l-26.924-27.194,2.822-4.984s26.237-17.966,50.033-13.032l.946,4.585,2.487-3.213s18.631,5.881,29.702,16.634c11.071,10.753,14.85,27.358,14.85,27.358l-38.353,17.557-35.562-17.712Z" fill="#d92c2a"/><path d="m430.654,186.251l2.467,6.555c.066.174.093.361.081.547l-.269,4.049c-.055.82.653,1.487,1.469,1.383l.619-.079c.513-.065,1.017.178,1.284.621l5.41,8.971c.307.51.921.747,1.492.578l12.399-3.692c.52-.155.89-.615.93-1.156l1.222-16.59c.033-.447-.157-.873-.517-1.14-2.82-2.09-15.163-11.225-15.571-11.368-.395-.138-8.414,7.681-10.708,9.928-.37.362-.491.908-.308,1.393Z" fill="#e49c7a"/><path d="m430.142,182.609c-1.03,3.981,2.443,10.57,2.443,10.57l2.631-3.43s-2.499-4.487.869-6.817c3.368-2.329,8.4-.771,9.694,3.001,1.295,3.772-1.772,6.769-1.772,6.769,0,0,4.667,3.179,3.89,6.672s-7.392,2.923-7.392,2.923l4.696,8.307,23.745-9.892s-3.298-10.548-9.933-19.586c-6.635-9.037-15.617-10.849-21.607-6.545-5.991,4.304-7.264,8.028-7.264,8.028Z" fill="#fbae12"/><path d="m433.895,177.775c-.081.027-.173.006-.232-.065l-25.828-30.284c-.076-.089-.066-.225.024-.301.09-.075.225-.067.302.025l25.828,30.284c.076.089.065.225-.025.301-.021.018-.045.031-.07.04Z"/><path d="m450.89,174.143c-.036.012-.077.015-.117.006-.115-.027-.186-.142-.16-.257l7.884-34.002c.026-.117.14-.189.257-.161.115.026.187.142.16.257l-7.884,34.002c-.018.075-.072.132-.14.155Z"/><path d="m455.445,177.276c-.062.021-.132.013-.19-.028-.097-.066-.121-.199-.055-.298l12.15-17.57c.069-.096.203-.121.298-.053.097.066.121.199.055.298l-12.15,17.57c-.027.039-.066.066-.108.081Z"/><path d="m467.732,197.38c-.103.035-.217-.013-.264-.114-.049-.107-.002-.234.106-.283l28.601-13.093c.101-.075.234-.002.284.105.049.107.002.234-.106.283l-28.601,13.093c-.007.004-.014.006-.02.009Z"/><path d="m497.727,183.649c-.103.035-.217-.013-.264-.114-.049-.107-.001-.234.106-.283l8.357-3.826c.107-.049.235-.002.284.105s.002.234-.106.283l-8.357,3.826c-.007.004-.013.006-.02.008Z"/><path d="m431.358,180.748c-.061.021-.13.014-.189-.026-.097-.066-.123-.199-.057-.297.034-.05,3.447-5.042,7.791-6.997.113-.072.234-.003.283.107.048.107,0,.235-.108.282-4.235,1.907-7.579,6.798-7.612,6.848-.027.039-.066.068-.109.083Z"/><path d="m456.882,178.682c-.076.026-.164.008-.224-.055-4.118-4.313-9.208-5.681-9.259-5.694-.114-.03-.183-.146-.153-.261.03-.114.148-.181.261-.154.052.014,5.254,1.407,9.46,5.813.082.085.078.221-.007.303-.023.022-.05.038-.079.048Z"/><path d="m445.271,210.808c-.106.036-.223-.016-.266-.12-.046-.11.005-.235.114-.281l23.565-9.818c-1.008-3.235-2.902-7.289-2.922-7.33-.05-.107-.004-.234.103-.284.115-.065.235-.004.285.103.02.041,2,4.279,3.001,7.572.032.106-.021.217-.122.26l-23.744,9.894s-.01.003-.014.005Zm23.676-10.096l.005-.002-.005.002Z"/><path d="m432.653,193.382c-.065.022-.14.012-.199-.033-.093-.071-.111-.206-.039-.3l2.631-3.43c.068-.095.205-.112.3-.04.093.071.111.206.039.3l-2.631,3.43c-.026.035-.062.06-.101.073Z"/><path d="m446.146,187.549c-.018.006-.035.01-.055.012-.118.006-.22-.083-.227-.201-.104-1.648-.895-3.081-2.231-4.037-1.646-1.176-3.893-1.495-6.165-.873-.114.031-.232-.036-.264-.151-.032-.115.037-.242.151-.263,2.397-.655,4.776-.314,6.528.939,1.442,1.031,2.298,2.578,2.408,4.357.006.099-.055.186-.145.217Z"/><path d="m445.106,202.091c-.111.038-.231-.021-.27-.131-.04-.112.019-.234.131-.274,1.572-.556,2.482-1.378,2.705-2.444.512-2.465-2.726-5.516-2.758-5.546-.086-.08-.092-.216-.012-.303.083-.085.217-.091.303-.011.141.131,3.447,3.244,2.885,5.946-.254,1.223-1.257,2.152-2.981,2.762h-.002Z"/><path d="m436.145,198.101c-.063.022-.136.013-.194-.03-.351-.256-.83.028-.836.034-.106.06-.233.029-.294-.07-.062-.101-.032-.233.069-.295.031-.014.729-.441,1.313-.015.096.07.117.204.047.3-.027.036-.064.062-.104.076Z"/><path d="m436.474,192.579c-.059,0-.117-.02-.165-.061-.108-.091-.124-.25-.035-.358.017-.021.411-.5,1.342-.489.884.009,1.435.403,1.457.42.115.085.141.246.057.361-.085.116-.247.14-.361.057-.003-.003-.447-.313-1.158-.32-.007,0-.014,0-.021,0-.646,0-.907.29-.918.303-.052.059-.124.089-.197.089Z"/><path d="m438.859,191.13c-.322,0-.687-.03-1.05-.121-1.134-.284-1.421-.962-1.433-.99-.054-.133.01-.283.142-.337s.28.009.336.139c.011.024.226.473,1.08.687.942.235,1.92.003,1.931,0,.134-.032.277.05.312.189.034.139-.051.278-.189.312-.029.007-.503.121-1.129.121Z"/><path d="m438.271,201.221c-.139,0-.253-.109-.258-.249-.016-.394.062-.67.235-.843.136-.136.307-.213.544-.188.195.009.385.078.567.146.241.089.414.146.487.082.086-.075.116-.198.151-.342.051-.203.12-.481.418-.597.267-.105.474.005.642.094.146.075.283.147.499.127.39-.038.58-.552.582-.558.049-.135.194-.203.33-.156.134.048.204.194.157.329-.013.033-.3.829-1.019.898-.373.039-.613-.091-.789-.184-.145-.074-.174-.085-.216-.069-.041.017-.062.077-.103.24-.047.188-.104.422-.312.604-.311.273-.697.131-1.008.016-.146-.054-.297-.109-.412-.115-.116.009-.145.029-.156.039-.029.029-.096.133-.084.457.006.143-.105.263-.248.268-.003,0-.007,0-.01,0Z"/></g><g id="plant"><path d="m611.293,501.648c-2.588.732-6.064.064-6.951-1.894-.888-1.958,0-5.436-2.293-6.914,0,0,5.768,3.417,9.244,8.809Z" fill="#aa9601"/><path d="m608.075,496.02c.181.159.461.025.451-.216-.077-1.789-.342-6.077-2.632-9.629-2.662-4.131-5.842-6.423-6.36-5.832-.518.592,1.257,4.751,1.849,6.849.592,2.099,2.441,5.87,4.215,6.98,1.1.687,1.972,1.403,2.477,1.848Z" fill="#887d0a"/><path d="m603.94,498.123c-.412-1.843-3.261-4.562-4.499-4.552,0,0,1.686-1.879,3.275-.306,1.589,1.573,1.224,4.858,1.224,4.858Z" fill="#897e00"/><g><path d="m613.778,501.731s1.84-3.584,4.558-5.642c2.718-2.058,6.212-5.873,7.488-8.813,1.276-2.94,3.808-4.917,3.808-4.917.666.203-.444,3.66-1.331,4.113-.887.453-2.662,3.632-3.993,8.292-1.331,4.659-5.99,6.597-8.135,6.885-.766.103-1.334.202-1.747.287-.252.052-.488-.039-.648-.204h0Z" fill="#aa9601"/><path d="m625.824,487.276c-1.276,2.94-4.77,6.755-7.488,8.813-2.718,2.058-4.558,5.642-4.558,5.642h0c-.148-.154-.23-.372-.194-.607.369-2.364,1.506-8.064,4.216-11.108,3.476-3.905,7.173-4.866,8.061-5.828.887-.961,3.106-2.033,3.771-1.83,0,0-2.533,1.978-3.808,4.917Z" fill="#897e00"/></g><g><path d="m610.294,486.888c.111-4.659-1.109-10.483-.629-13.537.296.632.961,4.271,2.218,7.369,1.257,3.099,2.588,7.979,2.071,11.751-.39,2.842-1.2,4.968-1.512,6.272-.029.122-.1.212-.189.275h0c-.647-1.681-2.071-7.471-1.96-12.13Z" fill="#aa9601"/><path d="m611.629,498.928c-.892-1.155-2.416-3.489-3.22-6.787-1.183-4.847-.37-12.78,0-14.988.37-2.209.961-4.434,1.257-3.802-.481,3.054.739,8.878.629,13.537s1.313,10.449,1.96,12.13h0c-.188.133-.462.122-.625-.089Z" fill="#897e00"/></g><path d="m612.43,506.728h0c-.038,0-.068-.031-.068-.068,0-.079.002-7.931-.94-10.263-.014-.035.003-.074.037-.088.035-.014.074.002.088.037.952,2.356.95,9.99.95,10.314,0,.038-.031.068-.068.068Z"/><path d="m612.371,503.734c-.025,0-.049-.014-.061-.038-.005-.011-.54-1.106-2.066-3.421-.021-.031-.012-.074.019-.094.032-.02.074-.012.094.019,1.532,2.324,2.07,3.426,2.075,3.437.016.034.002.075-.031.091-.01.005-.02.007-.03.007Z"/><path d="m612.43,504.621c-.005,0-.011,0-.016-.002-.037-.009-.059-.046-.05-.082.479-1.976,3.169-5.614,4.86-7.577.025-.028.068-.032.096-.007.028.024.032.067.007.096-2.029,2.356-4.412,5.792-4.831,7.52-.008.031-.035.052-.066.052Z"/><path d="m612.228,501.051c-.021,0-.043-.01-.056-.029-.049-.07-4.886-7.094-7.374-12.07-.017-.033-.003-.074.031-.091.033-.016.074-.003.091.031,2.483,4.967,7.316,11.983,7.364,12.053.021.031.014.073-.017.095-.012.008-.025.012-.039.012Z"/><path d="m611.165,495.02c-.03,0-.057-.02-.066-.05-.597-2.189-.711-5.232-.821-8.174-.059-1.576-.114-3.065-.24-4.413-.36-3.869-.533-6.373-.535-6.398-.003-.037.026-.07.063-.073.042-.005.07.026.073.063.002.025.175,2.528.535,6.395.126,1.352.181,2.843.24,4.42.11,2.935.223,5.969.816,8.144.01.036-.011.074-.048.083-.006.002-.012.002-.018.002Z"/><path d="m618.336,496.157c-.015,0-.03-.005-.043-.015-.029-.024-.033-.067-.01-.096,1.548-1.892,2.804-3.034,3.814-3.951,1.202-1.092,2.151-1.954,2.971-3.511,1.505-2.856,2.611-4.368,2.622-4.383.023-.03.065-.037.095-.014.03.022.037.065.014.095-.011.015-1.112,1.519-2.612,4.365-.832,1.578-1.788,2.448-3,3.549-1.006.914-2.258,2.052-3.8,3.936-.013.017-.033.025-.053.025Z"/><path d="m603.983,487.704c-.025,0-.049-.014-.061-.038-.024-.049-2.463-4.936-3.701-6.392-.024-.029-.021-.071.008-.096.028-.024.071-.021.096.008,1.248,1.468,3.694,6.37,3.719,6.419.017.033.003.074-.031.091-.01.005-.02.007-.03.007Z"/><path d="m609.384,499.172c-.02,0-.039-.008-.053-.025-2.019-2.457-5.677-5.151-5.713-5.178-.03-.022-.037-.065-.015-.095.022-.03.065-.037.095-.015.037.027,3.709,2.731,5.738,5.201.024.029.02.072-.01.096-.013.01-.028.015-.043.015Z"/></g><g id="plant-2"><path d="m185.642,492.902c2.588.732,6.064.064,6.951-1.894.887-1.959,0-5.436,2.293-6.914,0,0-5.768,3.417-9.244,8.809Z" fill="#aa9601"/><path d="m188.86,487.274c-.181.159-.461.025-.451-.216.077-1.789.342-6.077,2.632-9.629,2.662-4.131,5.842-6.423,6.36-5.832.518.592-1.257,4.751-1.849,6.849-.592,2.099-2.44,5.87-4.215,6.98-1.1.687-1.972,1.403-2.477,1.848Z" fill="#887d0a"/><path d="m192.995,489.376c.412-1.843,3.261-4.562,4.499-4.552,0,0-1.686-1.879-3.275-.306-1.589,1.573-1.224,4.858-1.224,4.858Z" fill="#897e00"/><g><path d="m183.157,492.984s-1.84-3.584-4.558-5.642c-2.718-2.058-6.212-5.873-7.488-8.813-1.276-2.94-3.808-4.917-3.808-4.917-.666.203.444,3.66,1.331,4.113.887.453,2.662,3.632,3.994,8.292,1.331,4.659,5.99,6.597,8.135,6.885.766.103,1.334.202,1.747.287.252.052.488-.039.648-.204h0Z" fill="#aa9601"/><path d="m171.111,478.53c1.276,2.94,4.77,6.755,7.488,8.813,2.718,2.058,4.558,5.642,4.558,5.642h0c.148-.154.23-.371.194-.607-.369-2.364-1.506-8.064-4.216-11.108-3.476-3.905-7.173-4.866-8.061-5.827-.887-.961-3.106-2.033-3.771-1.83,0,0,2.533,1.978,3.808,4.917Z" fill="#897e00"/></g><g><path d="m186.641,478.141c-.111-4.659,1.109-10.483.629-13.537-.296.632-.961,4.27-2.218,7.369-1.257,3.099-2.588,7.98-2.071,11.751.39,2.842,1.2,4.968,1.512,6.272.029.122.1.212.189.275h0c.647-1.681,2.071-7.471,1.96-12.13Z" fill="#aa9601"/><path d="m185.306,490.182c.892-1.155,2.415-3.489,3.22-6.787,1.183-4.847.37-12.78,0-14.988-.37-2.209-.961-4.434-1.257-3.802.481,3.054-.739,8.878-.629,13.537s-1.313,10.449-1.96,12.13h0c.188.133.462.122.625-.089Z" fill="#897e00"/></g><path d="m184.505,497.982h0c.038,0,.068-.031.068-.068,0-.079-.002-7.932.94-10.263.014-.035-.003-.074-.037-.088-.035-.014-.074.002-.088.037-.952,2.356-.951,9.99-.95,10.314,0,.038.031.068.068.068Z"/><path d="m184.564,494.987c.025,0,.05-.014.061-.038.005-.011.541-1.106,2.066-3.421.021-.031.012-.074-.019-.094-.032-.02-.074-.012-.094.019-1.532,2.324-2.07,3.426-2.075,3.437-.016.034-.002.075.031.091.01.005.02.007.03.007Z"/><path d="m184.505,495.875c.005,0,.011,0,.016-.002.037-.009.059-.046.05-.082-.479-1.976-3.169-5.614-4.86-7.577-.025-.028-.068-.032-.096-.007-.028.025-.032.067-.007.096,2.029,2.356,4.412,5.792,4.831,7.52.008.031.035.052.066.052Z"/><path d="m184.707,492.304c.022,0,.043-.01.056-.029.049-.07,4.886-7.094,7.374-12.07.017-.033.003-.074-.03-.091-.033-.016-.074-.003-.091.03-2.484,4.967-7.316,11.983-7.364,12.053-.021.031-.014.073.017.095.012.008.025.012.039.012Z"/><path d="m185.77,486.274c.03,0,.057-.02.066-.05.597-2.189.711-5.232.821-8.174.059-1.576.114-3.065.24-4.413.36-3.869.534-6.373.535-6.398.003-.038-.025-.07-.063-.073-.042-.005-.07.026-.073.063-.002.025-.175,2.528-.535,6.395-.126,1.352-.181,2.843-.24,4.421-.11,2.935-.223,5.969-.816,8.144-.01.036.011.074.048.083.006.002.012.002.018.002Z"/><path d="m178.598,487.411c.015,0,.031-.005.043-.015.029-.024.034-.067.01-.096-1.548-1.892-2.804-3.034-3.814-3.951-1.202-1.092-2.151-1.954-2.971-3.511-1.505-2.856-2.611-4.368-2.622-4.383-.022-.03-.065-.037-.095-.014-.03.022-.036.065-.014.095.011.015,1.112,1.519,2.612,4.365.832,1.578,1.788,2.448,3,3.549,1.006.914,2.258,2.052,3.8,3.936.013.016.033.025.053.025Z"/><path d="m192.952,478.958c.025,0,.049-.014.061-.038.024-.049,2.463-4.936,3.701-6.392.024-.029.021-.071-.008-.096-.028-.024-.071-.021-.096.008-1.248,1.468-3.694,6.37-3.719,6.419-.017.033-.003.074.031.091.01.005.02.007.03.007Z"/><path d="m187.551,490.426c.02,0,.039-.008.053-.025,2.019-2.457,5.677-5.151,5.713-5.178.03-.022.037-.065.015-.095-.022-.03-.065-.037-.095-.015-.037.027-3.709,2.731-5.738,5.201-.024.029-.02.072.01.096.013.01.028.015.043.015Z"/></g><ellipse cx="452.491" cy="545.173" rx="104.461" ry="9.697" fill="#d7b882"/><ellipse cx="291.957" cy="542.937" rx="104.461" ry="9.697" fill="#d7b882"/><path d="m462.254,297.603c-.058,0-.115-.023-.157-.069-.08-.087-.074-.222.012-.303.035-.032,3.506-3.249,4.495-5.588.046-.109.17-.162.281-.114.109.047.16.172.114.281-1.026,2.424-4.454,5.601-4.598,5.735-.042.038-.094.057-.146.057Z"/><path d="m457.627,286.75c-.291,0-.571-.049-.84-.147-1.471-.532-2.031-2.325-2.055-2.402-.034-.112.029-.233.142-.266.112-.034.233.03.268.142.005.017.523,1.666,1.793,2.125.745.273,1.614.08,2.586-.555,3.382-2.215,7.584-20.152,7.627-20.332.027-.114.14-.182.257-.161.115.027.186.142.16.258-.173.746-4.284,18.286-7.809,20.593-.757.497-1.47.746-2.128.746Z"/><path d="m452.458,387.091l11.402,96.675,17.183-1.124s-4.978-52.995-4.978-53.476.16-47.442.16-47.442l-15.416-2.341-8.351,7.708Z" fill="#e6a57f"/><polygon points="426.952 390.4 437.182 487.861 454.747 484.046 450.17 436.685 453.783 379.103 440.735 378.341 426.952 390.4" fill="#e6a57f"/><path d="m425.319,311.613l-18.669,73.068,2.048,8.311,9.635-5.179,6.263,7.588,8.07-4.697,9.549,5.728,6.229-7.052,9.303,4.225,4.909-9.042,8.311,9.033,7.588-8.19,9.756,4.818,3.493-13.128s-10.519-53.677-13.329-57.612c-2.81-3.934-53.155-7.869-53.155-7.869Z" fill="#3b3530"/><path d="m483.486,239.56c-3.085,19.54-8.545,74.462-5.012,79.922,0,0-17.665,8.015-33.242,3.686-15.577-4.329-19.913-11.555-19.913-11.555,0,0,8.234-41.914,14.876-62.791,6.643-20.877,43.291-9.263,43.291-9.263Z" fill="#538189"/><path d="m440.55,260.809c-2.886-3.351-.617-15.841.828-20.016,1.445-4.175,4.497-21.519,8.511-25.534,4.015-4.015,15.256-17.023,27.3-3.854,12.044,13.168,5.46,31.154,5.46,31.154,0,0-.642,5.781-4.175,11.402-3.533,5.621-7.548,5.92-7.548,5.92,0,0,.16,2.27-2.73,4.839-2.891,2.57-7.548,2.891-7.548,2.891l-20.099-6.802Z" fill="#dd2c2c"/><g><path d="m313.574,446.674s-22.409,13.72-46.482,35.987c-24.073,22.267-36.018,36.478-36.701,35.817-.683-.661,1.257-9.232,2.108-10.658.85-1.426,23.377-24.941,41.22-40.231,17.843-15.289,35.38-29.52,35.38-29.52l4.477,8.606Z" fill="#7fbcc5"/><path d="m321.23,449.9l-2.004.706c-.264.093-.553.082-.804-.041-1.32-.65-5.583-3.147-8.174-9.328-2.171-5.178-2.387-9.033-2.323-10.874.026-.735.442-1.392,1.083-1.753l1.369-.771,10.854,22.062Z" fill="#df5e02"/><path d="m320.203,439.787s2.95,9.301,1.027,10.114c-1.923.812-6.824-4.404-9.425-9.618-2.602-5.214-2.585-11.823-1.428-12.444,1.156-.621,6.533,6.202,6.533,6.202l3.294,5.746Z" fill="#fbae12"/><path d="m318.007,441.254s8.483-5.736,17.72-11.376c9.237-5.641,11.349-6.429,11.349-6.429,0,0-1.238-.06-2.098-.839-.86-.779-1.694-4.812-1.694-4.812,0,0-9.874,5.369-17.059,9.926-7.185,4.558-12.388,8.598-12.388,8.598,0,0,.468,3.892,2.189,4.683l1.721.791.26-.542Z" fill="#3b3530"/><path d="m347.076,423.449s1.961-1.574,2.115-2.812c.075-.606-1.151-3.989-2.318-3.849-1.168.141-3.588,1.01-3.588,1.01,0,0,.686,4.212,1.656,4.927.867.639,2.137.724,2.137.724Z" fill="#fbae12"/></g><path d="m429.871,282.138s-.795.616-1.339,2.269c-.544,1.653.653,4.072,0,4.55-.653.478.506,2.539.506,2.539,0,0,6.344,4.858,23.929,8.964,17.585,4.106,29.131,4.164,29.131,4.164,0,0,.442-1.037,0-2.997-.442-1.96.102-.871-.877-2.722-.98-1.851-4.246.109-19.813-3.266-15.567-3.375-31.537-13.502-31.537-13.502Z" fill="#d92c2a"/><path d="m435.275,486.175l21.037-3.372,4.175,64.77h-9.876l-1.325-4.388-3.252,4.388h-26.497s13.61-6.918,17.223-8.604c3.613-1.686,5.661-6.143,5.179-15.898-.482-9.756-6.664-36.896-6.664-36.896Z" fill="#fbae12"/><path d="m462.014,481.839l21.037-3.372,4.175,64.77h-9.876l-1.325-4.388-3.252,4.388h-26.497s13.61-6.918,17.223-8.604c3.613-1.686,5.661-6.143,5.179-15.898-.482-9.756-6.664-36.896-6.664-36.896Z" fill="#fbae12"/><path d="m470.608,245.811c-.043,0-.086-.013-.124-.038-.096-.069-.12-.202-.051-.299.061-.085,6.097-8.658,6.216-12.048.115-3.302-1.313-4.258-1.328-4.268-.069-.043-.108-.125-.098-.207.007-.055.651-5.543-2.755-11.306-1.181-1.999-3.005-3.326-5.421-3.943-3.715-.95-8.516-.057-12.535,2.332-5.912,3.513-6.654,16.675-6.66,16.809-.006.117-.116.203-.225.203-.118-.007-.209-.107-.203-.226.029-.55.762-13.525,6.87-17.153,4.113-2.444,9.039-3.356,12.861-2.379,2.495.637,4.46,2.069,5.683,4.141,3.195,5.406,2.9,10.585,2.824,11.452.373.303,1.524,1.496,1.417,4.561-.123,3.518-6.043,11.925-6.295,12.282-.042.058-.108.09-.175.09Z"/><path d="m466.262,258.698c-.081,0-.16-.047-.195-.126-.049-.109,0-.236.107-.284.048-.022,4.784-2.198,7.365-7.129,2.844-5.431,7.636-18.453,6.385-25.396-1.259-6.987-7.245-8.007-7.306-8.017-.116-.018-.197-.127-.178-.244.018-.115.133-.213.244-.177.064.008,6.347,1.069,7.662,8.362,1.27,7.047-3.559,20.197-6.427,25.671-2.654,5.068-7.521,7.301-7.57,7.323-.029.012-.059.018-.088.018Z"/><path d="m443.516,258.002c-.06-.055-.086-.142-.059-.224.037-.113.158-.175.271-.138.05.016,5.017,1.598,10.246-.308,5.76-2.098,18.074-8.495,21.826-14.47,3.775-6.012.039-10.798,0-10.847-.074-.092-.06-.226.033-.301.091-.073.242-.067.3.033.041.049,3.971,5.066.03,11.341-3.808,6.064-16.235,12.53-22.042,14.645-5.375,1.958-10.477.33-10.527.314-.029-.01-.056-.026-.077-.046Z"/><path d="m472.044,212.449c-.049,0-.099-.017-.139-.052-6.426-5.487-13.919-.634-13.996-.585-.098.062-.231.039-.296-.06-.065-.099-.038-.233.059-.298.079-.049,7.844-5.078,14.51.619.09.077.1.211.024.301-.043.05-.103.075-.163.075Z"/><path d="m447.454,236.552c-.006,0-.013,0-.019-.002-.117-.01-.205-.114-.194-.231l.183-2.063c.01-.112.104-.196.213-.196.006,0,.013,0,.019.002.117.01.205.114.194.231l-.183,2.063c-.01.112-.104.196-.213.196Z"/><g><path d="m464.467,218.462c-3.899-2.322-8.985-.98-11.447,2.833-9.358,14.492-22.194,53.655-29.423,57.07-6.413,3.03-27.952,6.396-38.731,7.943-3.426.492-6.824-.417-9.775-2.225-.485-.297-.994-.55-1.505-.718-2.559-.839-5.344-2.682-5.344-2.682,0,0-1.555,2.46,1.28,3.946,2.835,1.485,7.319,5.994,3.83,6.607-3.489.613-15.079-.864-15.889.605-.81,1.469,3.448,1.448,6.805,1.79,3.357.341,5.077,1.213,4.16,1.695-.918.481-2.654-.271-5.822-.222s-6.786.557-6.527,2.058c.158.913,3.844-.24,7.814.065,3.97.304,6.34.753,6.41,1.127.07.374-3.199.276-5.965.934-2.765.658-5.37-.429-5.539,1.37-.086.92,3.481,1.21,6.324.872,2.843-.337,4.435-.716,5.318-.361.608.245.677.671-1.718,1.288-2.395.617-5.338.211-5.341.819-.007,1.57,2.32.806,5.369.74,3.049-.066,12.96-6.399,14.136-6.115s53.136-1.79,55.583-2.79c2.448-1,30.828-46.327,32.918-61.479,1.15-8.334-2.976-12.82-6.922-15.169Z" fill="#e6a57f"/><path d="m454.428,270.944c-.025-.003-.05-.012-.073-.024-.104-.057-.142-.187-.087-.29.137-.253,13.732-25.327,16.599-34.768.034-.112.159-.177.267-.142.114.034.177.153.143.266-2.88,9.481-16.495,34.595-16.632,34.847-.044.08-.132.122-.218.11Z"/><path d="m429.282,280.591c-.113-.016-.194-.116-.184-.231.011-.117.115-.204.233-.194.024.002,2.45.211,3.324-.452.094-.072.228-.053.3.041.071.094.053.23-.042.302-1.005.76-3.514.546-3.62.536-.003,0-.007,0-.01-.001Z"/><path d="m411.022,297.16c-.1-.014-.179-.097-.184-.201-.007-.117.084-.22.202-.225.168-.009,16.832-.865,18.976-1.01.12-.012.22.079.228.199.008.118-.081.22-.199.227-2.147.148-18.815,1.004-18.983,1.013-.013,0-.027,0-.04-.002Z"/></g><path d="m478.561,284.224h-.016c-.118-.01-.207-.112-.197-.231.34-4.527,3.378-33.215,3.408-33.502.013-.117.12-.209.236-.191.118.012.202.117.191.234-.031.289-3.068,28.97-3.408,33.492-.008.112-.102.197-.213.197Z"/><path d="m449.762,312.416c-.019,0-.039-.003-.059-.008-.073-.02-1.772-.514-2.249-1.298-.061-.1-.029-.232.072-.293.102-.062.233-.03.294.072.323.53,1.553.979,2,1.108.114.032.18.151.147.264-.027.094-.113.155-.206.155Z"/><path d="m418.333,388.028c-.013,0-.025-.002-.039-.003-.116-.022-.193-.132-.172-.249l2.643-14.547c.021-.117.126-.189.249-.172.116.022.193.132.172.249l-2.643,14.547c-.019.104-.109.176-.211.176Z"/><path d="m421.819,369.265c-.016,0-.032-.002-.048-.005-.115-.027-.187-.142-.162-.258l1.686-7.346c.028-.114.149-.184.257-.161.115.027.187.142.161.258l-1.686,7.346c-.023.099-.111.166-.209.166Z"/><path d="m432.665,390.919h-.018c-.118-.012-.205-.115-.195-.233l2.041-23.22c.011-.117.114-.202.232-.196.118.012.205.115.195.233l-2.041,23.22c-.01.112-.103.196-.213.196Z"/><path d="m448.444,389.594c-.111,0-.205-.085-.213-.197-.722-9.265-1.684-30.6-1.694-30.814-.005-.119.086-.219.205-.224h.009c.114,0,.209.09.214.204.009.214.972,21.542,1.692,30.8.009.119-.079.221-.197.231h-.017Z"/><path d="m446.751,353.721c-.118,0-.214-.095-.214-.214v-1.799c0-.119.096-.214.214-.214s.214.095.214.214v1.799c0,.119-.096.214-.214.214Z"/><path d="m462.656,384.775c-.11,0-.202-.084-.213-.194l-1.452-15.51c-.011-.117.075-.223.193-.233.116-.037.222.075.233.192l1.452,15.511c.011.117-.075.223-.193.233-.007.002-.013.002-.02.002Z"/><path d="m478.554,385.619c-.085,0-.165-.05-.198-.134-.025-.06-2.433-6.128-2.792-14.619-.356-8.427-1.786-14.232-1.8-14.289-.029-.115.041-.231.156-.259.116-.035.231.04.259.156.015.058,1.456,5.901,1.814,14.376.355,8.41,2.737,14.417,2.761,14.475.044.11-.008.234-.118.279-.027.01-.053.015-.08.015Z"/><path d="m473.369,353.721c-.118,0-.214-.095-.214-.214v-5.533c0-.119.096-.214.214-.214s.214.095.214.214v5.533c0,.119-.096.214-.214.214Z"/><path d="m458.073,337.469c-.053,0-.106-.02-.147-.059-.086-.082-.09-.217-.008-.303.023-.023,2.284-2.406,2.633-2.872.071-.094.207-.114.3-.042.095.07.114.204.043.299-.365.485-2.571,2.811-2.665,2.909-.043.045-.099.067-.156.067Z"/><path d="m435.429,335.301c-4.313,0-4.911-6.533-4.911-6.598,0-.119.096-.214.214-.214s.214.095.214.214c0,.062.617,6.17,4.483,6.17.118,0,.214.095.214.214s-.096.214-.214.214Z"/><path d="m482.429,381.664c0,1.6,1.297,2.898,2.897,2.898s2.897-1.297,2.897-2.898-1.297-2.897-2.897-2.897-2.897,1.297-2.897,2.897Z" fill="#fbae12"/><path d="m468.222,385.405c0,1.6,1.297,2.897,2.897,2.897s2.897-1.297,2.897-2.897-1.297-2.897-2.897-2.897-2.897,1.297-2.897,2.897Z" fill="#fbae12"/><circle cx="455.703" cy="386.482" r="2.897" fill="#fbae12"/><path d="m438.915,388.302c0,1.6,1.297,2.897,2.897,2.897s2.898-1.297,2.898-2.897-1.297-2.897-2.898-2.897-2.897,1.297-2.897,2.897Z" fill="#fbae12"/><circle cx="425.994" cy="387.098" r="2.897" fill="#fbae12"/><path d="m408.885,384.562c0,1.6,1.297,2.897,2.897,2.897s2.897-1.297,2.897-2.897-1.297-2.898-2.897-2.898-2.897,1.297-2.897,2.898Z" fill="#fbae12"/><path d="m462.014,482.053c-.104,0-.195-.075-.212-.181-.019-.117.061-.226.177-.244l21.038-3.373c.128-.015.228.062.246.177.018.117-.061.226-.177.244l-21.037,3.373c-.012.002-.024.003-.034.003Z"/><path d="m435.275,486.39c-.104,0-.195-.075-.212-.181-.018-.117.061-.226.177-.244l21.038-3.373c.128-.015.228.062.246.177.018.117-.061.226-.177.244l-21.038,3.373c-.012.002-.023.003-.034.003Z"/><path d="m437.757,497.89c-.093,0-.178-.06-.206-.154-.032-.114.032-.233.146-.266l19.151-5.628c.114-.03.232.03.266.146.033.114-.032.233-.146.266l-19.151,5.628c-.02.005-.04.008-.06.008Z"/><path d="m438.657,502.335c-.103,0-.193-.074-.211-.179-.02-.115.058-.228.176-.246l18.698-3.145c.115-.017.227.059.246.176.02.116-.058.228-.176.246l-18.698,3.145c-.012.002-.023.003-.035.003Z"/><path d="m464.514,493.647c-.104,0-.194-.075-.212-.179-.018-.117.06-.227.177-.246q19.364-3.159,19.464-3.092l-.263.338.133-.167.021.212c-.266.032-12.732,2.061-19.287,3.13-.012.002-.023.003-.034.003Z"/><path d="m465.484,498.447c-.115,0-.211-.092-.214-.207-.003-.119.09-.217.207-.221l18.805-.557h.007c.115,0,.211.092.214.208.003.119-.09.218-.208.221l-18.805.557h-.007Z"/><path d="m460.368,545.914c-.112,0-.207-.087-.213-.201l-.887-13.746c-.008-.117.081-.219.2-.227.122-.002.22.084.227.201l.887,13.746c.008.117-.081.219-.2.227h-.013Z"/><path d="m489.749,543.452c-.025,0-.05-.005-.074-.013-.898-.139-21.547-.037-29.465.013h-.002c-.118,0-.213-.095-.214-.213,0-.119.095-.216.212-.216,29.443-.191,29.613-.018,29.694.064.084.084.084.219,0,.303-.042.042-.097.062-.151.062Z"/><path d="m454.017,547.786h-35.891c-.118,0-.214-.095-.214-.214s.096-.214.214-.214h35.891c.118,0,.214.095.214.214s-.096.214-.214.214Z"/><path d="m466.383,547.786h-10.759c-.118,0-.214-.095-.214-.214s.096-.214.214-.214h10.759c.118,0,.214.095.214.214s-.096.214-.214.214Z"/><g><g><ellipse cx="443.472" cy="487.831" rx="39.324" ry="103.038" transform="translate(-172.093 723.894) rotate(-68.708)" fill="#f8a41a"/><ellipse cx="443.472" cy="487.831" rx="34.781" ry="91.135" transform="translate(-172.093 723.894) rotate(-68.708)"/><ellipse cx="443.472" cy="487.831" rx="34.071" ry="89.275" transform="translate(-172.093 723.894) rotate(-68.708)" fill="#f7a321"/><path d="m354.823,442.457c.037-.096-.069-.24-.275-.352-.249-.139-.558-.183-.683-.095-.092.061-9.029,6.264-7.96,14.789.016.145.259.324.541.4.282.078.518.031.474-.124-1.03-8.372,7.769-14.498,7.853-14.562.024-.015.04-.034.049-.055Z"/><path d="m415.919,438.917c.01-.026.009-.057,0-.091-.053-.153-.321-.326-.598-.383-29.508-6.132-49.84-1.257-50.041-1.207-.2.038-.177.21.038.368.21.158.533.248.719.2.2-.049,20.315-4.866,49.475,1.195.218.045.372.008.408-.082Z"/><path d="m487.645,539.532c.016-.04.008-.091-.028-.148-.109-.163-.407-.315-.668-.343-22.547-2.291-47.527-11.072-47.778-11.162-.279-.099-.519-.062-.561.057-.029.131.175.317.458.417.251.088,25.485,8.96,48.267,11.276.17.016.281-.023.31-.098Z"/><path d="m538.846,528.351c.043-.11-.104-.28-.35-.391-.273-.124-.558-.137-.641-.029-8.167,10.581-26.43,11.529-26.609,11.537-.23.011-.289.15-.127.314.162.164.48.29.711.279.189-.009,18.726-.962,27.001-11.682.008-.009.012-.019.016-.028Z"/></g><path d="m439.853,497.119c11.562,4.506,22.556,4.001,24.555-1.129,1.999-5.13-5.753-12.941-17.316-17.447-11.562-4.506-22.556-4.001-24.555,1.129-1.999,5.13,5.753,12.941,17.316,17.447Z" fill="#d92c2a"/></g><path d="m397.586,284.608c-.122,0-.23-.085-.255-.209-.028-.141.063-.277.204-.306.199-.039,19.915-3.974,22.411-4.674l.485-.134c2.285-.626,3.936-1.079,6.467-4.692,2.72-3.881,11.316-22.875,11.403-23.066.059-.132.211-.188.344-.129.13.059.188.213.129.344-.354.783-8.703,19.229-11.45,23.15-2.639,3.767-4.455,4.264-6.756,4.895l-.481.133c-2.516.706-21.638,4.521-22.45,4.684-.018.003-.034.005-.051.005Z"/><path d="m313.836,391.432c-.129,0-.232-.104-.232-.232v-55.899c0-.129.104-.232.232-.232s.232.104.232.232v55.899c0,.129-.104.232-.232.232Z"/><path d="m291.956,437.417c-.129,0-.232-.104-.232-.232v-19.387c0-.129.104-.232.232-.232s.232.104.232.232v19.387c0,.129-.104.232-.232.232Z"/><path d="m271.91,427.723c-.129,0-.232-.104-.232-.232v-56.527c0-.129.104-.232.232-.232s.232.104.232.232v56.527c0,.129-.104.232-.232.232Z"/><path d="m389,418.03c-.129,0-.232-.104-.232-.232v-36.134c0-.129.104-.232.232-.232s.232.104.232.232v36.134c0,.129-.104.232-.232.232Z"/><path d="m437.543,464.363c-.129,0-.232-.104-.232-.232v-52.826c0-.129.104-.232.232-.232s.232.104.232.232v52.826c0,.129-.104.232-.232.232Z"/><path d="m465.271,460.232h-.005c-.129-.002-.23-.108-.228-.237l.778-36.551c.002-.129.112-.246.237-.228.129.002.23.108.228.237l-.778,36.551c-.002.127-.106.228-.232.228Z"/><path d="m502.087,460.232c-.129,0-.232-.104-.232-.232v-68.8c0-.129.104-.232.232-.232s.232.104.232.232v68.8c0,.129-.104.232-.232.232Z"/><g id="plant-3"><path d="m341.594,537.628c2.588.732,6.064.064,6.951-1.894.888-1.958,0-5.436,2.293-6.914,0,0-5.768,3.417-9.244,8.809Z" fill="#aa9601"/><path d="m344.812,532c-.181.159-.461.025-.451-.216.077-1.789.342-6.077,2.632-9.629,2.662-4.131,5.842-6.423,6.36-5.832.518.592-1.257,4.751-1.849,6.849-.592,2.099-2.441,5.87-4.215,6.98-1.1.687-1.972,1.403-2.477,1.848Z" fill="#887d0a"/><path d="m348.947,534.103c.412-1.843,3.261-4.562,4.499-4.552,0,0-1.686-1.879-3.275-.306-1.589,1.573-1.224,4.858-1.224,4.858Z" fill="#897e00"/><g><path d="m339.109,537.711s-1.84-3.584-4.558-5.642c-2.718-2.058-6.212-5.873-7.488-8.813-1.276-2.94-3.808-4.917-3.808-4.917-.666.203.444,3.66,1.331,4.113.887.453,2.662,3.632,3.993,8.292,1.331,4.659,5.99,6.597,8.135,6.885.766.103,1.334.202,1.747.287.252.052.488-.039.648-.204h0Z" fill="#aa9601"/><path d="m327.063,523.256c1.276,2.94,4.77,6.755,7.488,8.813,2.718,2.058,4.558,5.642,4.558,5.642h0c.148-.154.23-.371.194-.607-.369-2.364-1.506-8.064-4.216-11.108-3.476-3.905-7.173-4.866-8.061-5.827-.887-.961-3.106-2.033-3.771-1.83,0,0,2.533,1.978,3.808,4.917Z" fill="#897e00"/></g><g><path d="m342.593,522.868c-.111-4.659,1.109-10.483.629-13.537-.296.632-.961,4.271-2.219,7.369-1.257,3.099-2.588,7.979-2.071,11.751.39,2.842,1.2,4.968,1.512,6.272.029.122.1.213.189.275h0c.647-1.681,2.071-7.471,1.96-12.13Z" fill="#aa9601"/><path d="m341.258,534.908c.892-1.155,2.415-3.489,3.22-6.786,1.183-4.847.37-12.78,0-14.988-.37-2.209-.961-4.435-1.257-3.802.481,3.054-.739,8.878-.629,13.537s-1.313,10.449-1.96,12.13h0c.188.133.462.122.625-.089Z" fill="#897e00"/></g><path d="m340.458,542.708h0c.038,0,.068-.03.068-.068,0-.079-.002-7.932.94-10.263.014-.035-.003-.074-.037-.088-.035-.014-.074.002-.088.037-.952,2.356-.951,9.99-.95,10.314,0,.038.03.068.068.068Z"/><path d="m340.516,539.714c.025,0,.049-.014.061-.038.005-.011.54-1.106,2.066-3.421.021-.031.012-.074-.019-.094-.032-.02-.074-.012-.094.019-1.532,2.324-2.07,3.426-2.075,3.437-.016.034-.002.075.031.091.01.005.02.007.03.007Z"/><path d="m340.458,540.601c.005,0,.011,0,.016-.002.037-.009.059-.046.05-.082-.479-1.976-3.169-5.614-4.86-7.577-.025-.028-.068-.032-.096-.007-.029.025-.032.067-.007.096,2.029,2.356,4.412,5.792,4.831,7.52.008.031.035.052.066.052Z"/><path d="m340.659,537.031c.022,0,.043-.01.056-.029.049-.07,4.886-7.094,7.374-12.07.017-.033.003-.074-.031-.091-.033-.016-.074-.003-.091.031-2.484,4.967-7.316,11.983-7.364,12.053-.021.031-.014.073.017.094.012.008.025.012.039.012Z"/><path d="m341.721,531c.03,0,.058-.02.066-.05.597-2.189.711-5.232.821-8.174.059-1.576.114-3.065.24-4.413.36-3.869.533-6.373.535-6.398.003-.037-.025-.07-.063-.073-.042-.005-.07.026-.073.063-.002.025-.176,2.528-.535,6.395-.126,1.352-.181,2.843-.24,4.421-.109,2.935-.223,5.969-.816,8.144-.01.036.011.074.048.083.006.002.012.002.018.002Z"/><path d="m334.55,532.137c.015,0,.031-.005.043-.015.029-.024.034-.067.01-.096-1.548-1.892-2.804-3.034-3.814-3.951-1.202-1.092-2.151-1.954-2.971-3.511-1.505-2.856-2.611-4.368-2.622-4.383-.023-.03-.065-.037-.095-.014-.03.022-.037.065-.014.095.011.015,1.112,1.519,2.612,4.365.832,1.578,1.788,2.448,3,3.549,1.006.914,2.258,2.052,3.8,3.936.013.016.033.025.053.025Z"/><path d="m348.904,523.684c.025,0,.049-.014.061-.038.024-.049,2.463-4.936,3.701-6.392.024-.029.021-.071-.008-.096-.028-.024-.071-.021-.096.008-1.248,1.468-3.694,6.37-3.719,6.419-.017.033-.003.074.031.091.01.005.02.007.03.007Z"/><path d="m343.503,535.153c.02,0,.039-.008.053-.025,2.019-2.457,5.677-5.151,5.713-5.178.03-.022.037-.065.015-.095-.022-.03-.065-.037-.095-.015-.037.027-3.709,2.731-5.738,5.201-.024.029-.02.072.01.096.012.01.028.015.043.015Z"/></g></svg>